<?xml version="1.0" encoding="UTF-8" standalone="no"?><svg xmlns="http://www.w3.org/2000/svg" xmlns:xlink="http://www.w3.org/1999/xlink" contentStyleType="text/css" height="596px" preserveAspectRatio="none" style="width:644px;height:596px;background:#FFFFFF;" version="1.1" viewBox="0 0 644 596" width="644px" zoomAndPan="magnify"><defs/><g><!--class Client--><g id="elem_Client"><rect codeLine="1" fill="#F1F1F1" height="48" id="Client" rx="2.5" ry="2.5" style="stroke:#181818;stroke-width:0.5;" width="75" x="196" y="7"/><ellipse cx="211" cy="23" fill="#ADD1B2" rx="11" ry="11" style="stroke:#181818;stroke-width:1.0;"/><path d="M213.3438,18.6719 C212.4063,18.2344 211.8125,18.0938 210.9375,18.0938 C208.3125,18.0938 206.3125,20.1719 206.3125,22.8906 L206.3125,24.0156 C206.3125,26.5938 208.4219,28.4844 211.3125,28.4844 C212.5313,28.4844 213.6875,28.1875 214.4375,27.6406 C215.0156,27.2344 215.3438,26.7813 215.3438,26.3906 C215.3438,25.9375 214.9531,25.5469 214.4844,25.5469 C214.2656,25.5469 214.0625,25.625 213.875,25.8125 C213.4219,26.2969 213.4219,26.2969 213.2344,26.3906 C212.8125,26.6563 212.125,26.7813 211.3594,26.7813 C209.3125,26.7813 208.0156,25.6875 208.0156,23.9844 L208.0156,22.8906 C208.0156,21.1094 209.2656,19.7969 211,19.7969 C211.5781,19.7969 212.1875,19.9531 212.6563,20.2031 C213.1406,20.4844 213.3125,20.7031 213.4063,21.1094 C213.4688,21.5156 213.5,21.6406 213.6406,21.7656 C213.7813,21.9063 214.0156,22.0156 214.2344,22.0156 C214.5,22.0156 214.7656,21.875 214.9375,21.6563 C215.0469,21.5 215.0781,21.3125 215.0781,20.8906 L215.0781,19.4688 C215.0781,19.0313 215.0625,18.9063 214.9688,18.75 C214.8125,18.4844 214.5313,18.3438 214.2344,18.3438 C213.9375,18.3438 213.7344,18.4375 213.5156,18.75 L213.3438,18.6719 Z " fill="#000000"/><text fill="#000000" font-family="sans-serif" font-size="14" lengthAdjust="spacing" textLength="43" x="225" y="27.8467">Client</text><line style="stroke:#181818;stroke-width:0.5;" x1="197" x2="270" y1="39" y2="39"/><line style="stroke:#181818;stroke-width:0.5;" x1="197" x2="270" y1="47" y2="47"/></g><!--class AbstractFactory--><g id="elem_AbstractFactory"><rect codeLine="2" fill="#F1F1F1" height="80.5938" id="AbstractFactory" rx="2.5" ry="2.5" style="stroke:#181818;stroke-width:0.5;" width="144" x="161.5" y="132"/><ellipse cx="176.5" cy="148" fill="#A9DCDF" rx="11" ry="11" style="stroke:#181818;stroke-width:1.0;"/><path d="M178.5781,149.8125 L178.9688,150.7969 L178.5781,150.7969 C178.125,150.7969 178.0156,150.8125 177.8594,150.9219 C177.6094,151.0781 177.4531,151.3594 177.4531,151.6563 C177.4531,151.9219 177.5938,152.1719 177.8125,152.3281 C177.9531,152.4531 178.1563,152.5 178.5781,152.5 L180.9375,152.5 C181.2969,152.5 181.5156,152.4688 181.6563,152.375 C181.9063,152.2344 182.0625,151.9375 182.0625,151.6563 C182.0625,151.375 181.9219,151.125 181.7031,150.9688 C181.5313,150.8281 181.375,150.7969 180.9063,150.7969 L177.5156,142.5938 L173.8438,142.5938 C173.3906,142.5938 173.2656,142.6094 173.1094,142.7031 C172.8594,142.875 172.7031,143.1563 172.7031,143.4375 C172.7031,143.7188 172.8438,143.9688 173.0625,144.1406 C173.2344,144.25 173.4063,144.2813 173.8438,144.2813 L174.9219,144.2813 L172.2813,150.7969 C171.8594,150.7969 171.7031,150.8125 171.5469,150.9219 C171.2969,151.0781 171.1406,151.3594 171.1406,151.6563 C171.1406,152.2188 171.5156,152.5 172.2656,152.5 L174.5313,152.5 C174.8906,152.5 175.1094,152.4688 175.2344,152.375 C175.5,152.2344 175.6406,151.9375 175.6406,151.6563 C175.6406,151.375 175.5156,151.125 175.2969,150.9531 C175.125,150.8281 174.9844,150.7969 174.5313,150.7969 L174.1406,150.7969 L174.5313,149.8125 L178.5781,149.8125 Z M177.875,148.1094 L175.2031,148.1094 L176.5469,144.8438 L177.875,148.1094 Z " fill="#000000"/><text fill="#000000" font-family="sans-serif" font-size="14" font-style="italic" lengthAdjust="spacing" textLength="112" x="190.5" y="152.8467">AbstractFactory</text><line style="stroke:#181818;stroke-width:0.5;" x1="162.5" x2="304.5" y1="164" y2="164"/><line style="stroke:#181818;stroke-width:0.5;" x1="162.5" x2="304.5" y1="172" y2="172"/><text fill="#000000" font-family="sans-serif" font-size="14" lengthAdjust="spacing" textLength="123" x="167.5" y="188.9951">createProductA()</text><text fill="#000000" font-family="sans-serif" font-size="14" lengthAdjust="spacing" textLength="123" x="167.5" y="205.292">createProductB()</text></g><!--class Factory1--><g id="elem_Factory1"><rect codeLine="6" fill="#F1F1F1" height="80.5938" id="Factory1" rx="2.5" ry="2.5" style="stroke:#181818;stroke-width:0.5;" width="135" x="161" y="290"/><ellipse cx="194" cy="306" fill="#ADD1B2" rx="11" ry="11" style="stroke:#181818;stroke-width:1.0;"/><path d="M196.3438,301.6719 C195.4063,301.2344 194.8125,301.0938 193.9375,301.0938 C191.3125,301.0938 189.3125,303.1719 189.3125,305.8906 L189.3125,307.0156 C189.3125,309.5938 191.4219,311.4844 194.3125,311.4844 C195.5313,311.4844 196.6875,311.1875 197.4375,310.6406 C198.0156,310.2344 198.3438,309.7813 198.3438,309.3906 C198.3438,308.9375 197.9531,308.5469 197.4844,308.5469 C197.2656,308.5469 197.0625,308.625 196.875,308.8125 C196.4219,309.2969 196.4219,309.2969 196.2344,309.3906 C195.8125,309.6563 195.125,309.7813 194.3594,309.7813 C192.3125,309.7813 191.0156,308.6875 191.0156,306.9844 L191.0156,305.8906 C191.0156,304.1094 192.2656,302.7969 194,302.7969 C194.5781,302.7969 195.1875,302.9531 195.6563,303.2031 C196.1406,303.4844 196.3125,303.7031 196.4063,304.1094 C196.4688,304.5156 196.5,304.6406 196.6406,304.7656 C196.7813,304.9063 197.0156,305.0156 197.2344,305.0156 C197.5,305.0156 197.7656,304.875 197.9375,304.6563 C198.0469,304.5 198.0781,304.3125 198.0781,303.8906 L198.0781,302.4688 C198.0781,302.0313 198.0625,301.9063 197.9688,301.75 C197.8125,301.4844 197.5313,301.3438 197.2344,301.3438 C196.9375,301.3438 196.7344,301.4375 196.5156,301.75 L196.3438,301.6719 Z " fill="#000000"/><text fill="#000000" font-family="sans-serif" font-size="14" lengthAdjust="spacing" textLength="63" x="212" y="310.8467">Factory1</text><line style="stroke:#181818;stroke-width:0.5;" x1="162" x2="295" y1="322" y2="322"/><line style="stroke:#181818;stroke-width:0.5;" x1="162" x2="295" y1="330" y2="330"/><text fill="#000000" font-family="sans-serif" font-size="14" lengthAdjust="spacing" textLength="123" x="167" y="346.9951">createProductA()</text><text fill="#000000" font-family="sans-serif" font-size="14" lengthAdjust="spacing" textLength="123" x="167" y="363.292">createProductB()</text></g><!--class Factory2--><g id="elem_Factory2"><rect codeLine="10" fill="#F1F1F1" height="80.5938" id="Factory2" rx="2.5" ry="2.5" style="stroke:#181818;stroke-width:0.5;" width="135" x="331" y="290"/><ellipse cx="364.45" cy="306" fill="#ADD1B2" rx="11" ry="11" style="stroke:#181818;stroke-width:1.0;"/><path d="M366.7938,301.6719 C365.8563,301.2344 365.2625,301.0938 364.3875,301.0938 C361.7625,301.0938 359.7625,303.1719 359.7625,305.8906 L359.7625,307.0156 C359.7625,309.5938 361.8719,311.4844 364.7625,311.4844 C365.9813,311.4844 367.1375,311.1875 367.8875,310.6406 C368.4656,310.2344 368.7938,309.7813 368.7938,309.3906 C368.7938,308.9375 368.4031,308.5469 367.9344,308.5469 C367.7156,308.5469 367.5125,308.625 367.325,308.8125 C366.8719,309.2969 366.8719,309.2969 366.6844,309.3906 C366.2625,309.6563 365.575,309.7813 364.8094,309.7813 C362.7625,309.7813 361.4656,308.6875 361.4656,306.9844 L361.4656,305.8906 C361.4656,304.1094 362.7156,302.7969 364.45,302.7969 C365.0281,302.7969 365.6375,302.9531 366.1063,303.2031 C366.5906,303.4844 366.7625,303.7031 366.8563,304.1094 C366.9188,304.5156 366.95,304.6406 367.0906,304.7656 C367.2313,304.9063 367.4656,305.0156 367.6844,305.0156 C367.95,305.0156 368.2156,304.875 368.3875,304.6563 C368.4969,304.5 368.5281,304.3125 368.5281,303.8906 L368.5281,302.4688 C368.5281,302.0313 368.5125,301.9063 368.4188,301.75 C368.2625,301.4844 367.9813,301.3438 367.6844,301.3438 C367.3875,301.3438 367.1844,301.4375 366.9656,301.75 L366.7938,301.6719 Z " fill="#000000"/><text fill="#000000" font-family="sans-serif" font-size="14" lengthAdjust="spacing" textLength="62" x="382.55" y="310.8467">Factory2</text><line style="stroke:#181818;stroke-width:0.5;" x1="332" x2="465" y1="322" y2="322"/><line style="stroke:#181818;stroke-width:0.5;" x1="332" x2="465" y1="330" y2="330"/><text fill="#000000" font-family="sans-serif" font-size="14" lengthAdjust="spacing" textLength="123" x="337" y="346.9951">createProductA()</text><text fill="#000000" font-family="sans-serif" font-size="14" lengthAdjust="spacing" textLength="123" x="337" y="363.292">createProductB()</text></g><!--class AbstractProductA--><g id="elem_AbstractProductA"><rect codeLine="14" fill="#F1F1F1" height="48" id="AbstractProductA" rx="2.5" ry="2.5" style="stroke:#181818;stroke-width:0.5;" width="155" x="7" y="432"/><ellipse cx="22" cy="448" fill="#A9DCDF" rx="11" ry="11" style="stroke:#181818;stroke-width:1.0;"/><path d="M24.0781,449.8125 L24.4688,450.7969 L24.0781,450.7969 C23.625,450.7969 23.5156,450.8125 23.3594,450.9219 C23.1094,451.0781 22.9531,451.3594 22.9531,451.6563 C22.9531,451.9219 23.0938,452.1719 23.3125,452.3281 C23.4531,452.4531 23.6563,452.5 24.0781,452.5 L26.4375,452.5 C26.7969,452.5 27.0156,452.4688 27.1563,452.375 C27.4063,452.2344 27.5625,451.9375 27.5625,451.6563 C27.5625,451.375 27.4219,451.125 27.2031,450.9688 C27.0313,450.8281 26.875,450.7969 26.4063,450.7969 L23.0156,442.5938 L19.3438,442.5938 C18.8906,442.5938 18.7656,442.6094 18.6094,442.7031 C18.3594,442.875 18.2031,443.1563 18.2031,443.4375 C18.2031,443.7188 18.3438,443.9688 18.5625,444.1406 C18.7344,444.25 18.9063,444.2813 19.3438,444.2813 L20.4219,444.2813 L17.7813,450.7969 C17.3594,450.7969 17.2031,450.8125 17.0469,450.9219 C16.7969,451.0781 16.6406,451.3594 16.6406,451.6563 C16.6406,452.2188 17.0156,452.5 17.7656,452.5 L20.0313,452.5 C20.3906,452.5 20.6094,452.4688 20.7344,452.375 C21,452.2344 21.1406,451.9375 21.1406,451.6563 C21.1406,451.375 21.0156,451.125 20.7969,450.9531 C20.625,450.8281 20.4844,450.7969 20.0313,450.7969 L19.6406,450.7969 L20.0313,449.8125 L24.0781,449.8125 Z M23.375,448.1094 L20.7031,448.1094 L22.0469,444.8438 L23.375,448.1094 Z " fill="#000000"/><text fill="#000000" font-family="sans-serif" font-size="14" font-style="italic" lengthAdjust="spacing" textLength="123" x="36" y="452.8467">AbstractProductA</text><line style="stroke:#181818;stroke-width:0.5;" x1="8" x2="161" y1="464" y2="464"/><line style="stroke:#181818;stroke-width:0.5;" x1="8" x2="161" y1="472" y2="472"/></g><!--class AbstractProductB--><g id="elem_AbstractProductB"><rect codeLine="15" fill="#F1F1F1" height="48" id="AbstractProductB" rx="2.5" ry="2.5" style="stroke:#181818;stroke-width:0.5;" width="155" x="482" y="432"/><ellipse cx="497" cy="448" fill="#A9DCDF" rx="11" ry="11" style="stroke:#181818;stroke-width:1.0;"/><path d="M499.0781,449.8125 L499.4688,450.7969 L499.0781,450.7969 C498.625,450.7969 498.5156,450.8125 498.3594,450.9219 C498.1094,451.0781 497.9531,451.3594 497.9531,451.6563 C497.9531,451.9219 498.0938,452.1719 498.3125,452.3281 C498.4531,452.4531 498.6563,452.5 499.0781,452.5 L501.4375,452.5 C501.7969,452.5 502.0156,452.4688 502.1563,452.375 C502.4063,452.2344 502.5625,451.9375 502.5625,451.6563 C502.5625,451.375 502.4219,451.125 502.2031,450.9688 C502.0313,450.8281 501.875,450.7969 501.4063,450.7969 L498.0156,442.5938 L494.3438,442.5938 C493.8906,442.5938 493.7656,442.6094 493.6094,442.7031 C493.3594,442.875 493.2031,443.1563 493.2031,443.4375 C493.2031,443.7188 493.3438,443.9688 493.5625,444.1406 C493.7344,444.25 493.9063,444.2813 494.3438,444.2813 L495.4219,444.2813 L492.7813,450.7969 C492.3594,450.7969 492.2031,450.8125 492.0469,450.9219 C491.7969,451.0781 491.6406,451.3594 491.6406,451.6563 C491.6406,452.2188 492.0156,452.5 492.7656,452.5 L495.0313,452.5 C495.3906,452.5 495.6094,452.4688 495.7344,452.375 C496,452.2344 496.1406,451.9375 496.1406,451.6563 C496.1406,451.375 496.0156,451.125 495.7969,450.9531 C495.625,450.8281 495.4844,450.7969 495.0313,450.7969 L494.6406,450.7969 L495.0313,449.8125 L499.0781,449.8125 Z M498.375,448.1094 L495.7031,448.1094 L497.0469,444.8438 L498.375,448.1094 Z " fill="#000000"/><text fill="#000000" font-family="sans-serif" font-size="14" font-style="italic" lengthAdjust="spacing" textLength="123" x="511" y="452.8467">AbstractProductB</text><line style="stroke:#181818;stroke-width:0.5;" x1="483" x2="636" y1="464" y2="464"/><line style="stroke:#181818;stroke-width:0.5;" x1="483" x2="636" y1="472" y2="472"/></g><!--class ProductA1--><g id="elem_ProductA1"><rect codeLine="16" fill="#F1F1F1" height="48" id="ProductA1" rx="2.5" ry="2.5" style="stroke:#181818;stroke-width:0.5;" width="107" x="36" y="541"/><ellipse cx="51" cy="557" fill="#ADD1B2" rx="11" ry="11" style="stroke:#181818;stroke-width:1.0;"/><path d="M53.3438,552.6719 C52.4063,552.2344 51.8125,552.0938 50.9375,552.0938 C48.3125,552.0938 46.3125,554.1719 46.3125,556.8906 L46.3125,558.0156 C46.3125,560.5938 48.4219,562.4844 51.3125,562.4844 C52.5313,562.4844 53.6875,562.1875 54.4375,561.6406 C55.0156,561.2344 55.3438,560.7813 55.3438,560.3906 C55.3438,559.9375 54.9531,559.5469 54.4844,559.5469 C54.2656,559.5469 54.0625,559.625 53.875,559.8125 C53.4219,560.2969 53.4219,560.2969 53.2344,560.3906 C52.8125,560.6563 52.125,560.7813 51.3594,560.7813 C49.3125,560.7813 48.0156,559.6875 48.0156,557.9844 L48.0156,556.8906 C48.0156,555.1094 49.2656,553.7969 51,553.7969 C51.5781,553.7969 52.1875,553.9531 52.6563,554.2031 C53.1406,554.4844 53.3125,554.7031 53.4063,555.1094 C53.4688,555.5156 53.5,555.6406 53.6406,555.7656 C53.7813,555.9063 54.0156,556.0156 54.2344,556.0156 C54.5,556.0156 54.7656,555.875 54.9375,555.6563 C55.0469,555.5 55.0781,555.3125 55.0781,554.8906 L55.0781,553.4688 C55.0781,553.0313 55.0625,552.9063 54.9688,552.75 C54.8125,552.4844 54.5313,552.3438 54.2344,552.3438 C53.9375,552.3438 53.7344,552.4375 53.5156,552.75 L53.3438,552.6719 Z " fill="#000000"/><text fill="#000000" font-family="sans-serif" font-size="14" lengthAdjust="spacing" textLength="75" x="65" y="561.8467">ProductA1</text><line style="stroke:#181818;stroke-width:0.5;" x1="37" x2="142" y1="573" y2="573"/><line style="stroke:#181818;stroke-width:0.5;" x1="37" x2="142" y1="581" y2="581"/></g><!--class ProductB1--><g id="elem_ProductB1"><rect codeLine="17" fill="#F1F1F1" height="48" id="ProductB1" rx="2.5" ry="2.5" style="stroke:#181818;stroke-width:0.5;" width="107" x="323" y="541"/><ellipse cx="338" cy="557" fill="#ADD1B2" rx="11" ry="11" style="stroke:#181818;stroke-width:1.0;"/><path d="M340.3438,552.6719 C339.4063,552.2344 338.8125,552.0938 337.9375,552.0938 C335.3125,552.0938 333.3125,554.1719 333.3125,556.8906 L333.3125,558.0156 C333.3125,560.5938 335.4219,562.4844 338.3125,562.4844 C339.5313,562.4844 340.6875,562.1875 341.4375,561.6406 C342.0156,561.2344 342.3438,560.7813 342.3438,560.3906 C342.3438,559.9375 341.9531,559.5469 341.4844,559.5469 C341.2656,559.5469 341.0625,559.625 340.875,559.8125 C340.4219,560.2969 340.4219,560.2969 340.2344,560.3906 C339.8125,560.6563 339.125,560.7813 338.3594,560.7813 C336.3125,560.7813 335.0156,559.6875 335.0156,557.9844 L335.0156,556.8906 C335.0156,555.1094 336.2656,553.7969 338,553.7969 C338.5781,553.7969 339.1875,553.9531 339.6563,554.2031 C340.1406,554.4844 340.3125,554.7031 340.4063,555.1094 C340.4688,555.5156 340.5,555.6406 340.6406,555.7656 C340.7813,555.9063 341.0156,556.0156 341.2344,556.0156 C341.5,556.0156 341.7656,555.875 341.9375,555.6563 C342.0469,555.5 342.0781,555.3125 342.0781,554.8906 L342.0781,553.4688 C342.0781,553.0313 342.0625,552.9063 341.9688,552.75 C341.8125,552.4844 341.5313,552.3438 341.2344,552.3438 C340.9375,552.3438 340.7344,552.4375 340.5156,552.75 L340.3438,552.6719 Z " fill="#000000"/><text fill="#000000" font-family="sans-serif" font-size="14" lengthAdjust="spacing" textLength="75" x="352" y="561.8467">ProductB1</text><line style="stroke:#181818;stroke-width:0.5;" x1="324" x2="429" y1="573" y2="573"/><line style="stroke:#181818;stroke-width:0.5;" x1="324" x2="429" y1="581" y2="581"/></g><!--class ProductA2--><g id="elem_ProductA2"><rect codeLine="18" fill="#F1F1F1" height="48" id="ProductA2" rx="2.5" ry="2.5" style="stroke:#181818;stroke-width:0.5;" width="106" x="180.5" y="541"/><ellipse cx="195.5" cy="557" fill="#ADD1B2" rx="11" ry="11" style="stroke:#181818;stroke-width:1.0;"/><path d="M197.8438,552.6719 C196.9063,552.2344 196.3125,552.0938 195.4375,552.0938 C192.8125,552.0938 190.8125,554.1719 190.8125,556.8906 L190.8125,558.0156 C190.8125,560.5938 192.9219,562.4844 195.8125,562.4844 C197.0313,562.4844 198.1875,562.1875 198.9375,561.6406 C199.5156,561.2344 199.8438,560.7813 199.8438,560.3906 C199.8438,559.9375 199.4531,559.5469 198.9844,559.5469 C198.7656,559.5469 198.5625,559.625 198.375,559.8125 C197.9219,560.2969 197.9219,560.2969 197.7344,560.3906 C197.3125,560.6563 196.625,560.7813 195.8594,560.7813 C193.8125,560.7813 192.5156,559.6875 192.5156,557.9844 L192.5156,556.8906 C192.5156,555.1094 193.7656,553.7969 195.5,553.7969 C196.0781,553.7969 196.6875,553.9531 197.1563,554.2031 C197.6406,554.4844 197.8125,554.7031 197.9063,555.1094 C197.9688,555.5156 198,555.6406 198.1406,555.7656 C198.2813,555.9063 198.5156,556.0156 198.7344,556.0156 C199,556.0156 199.2656,555.875 199.4375,555.6563 C199.5469,555.5 199.5781,555.3125 199.5781,554.8906 L199.5781,553.4688 C199.5781,553.0313 199.5625,552.9063 199.4688,552.75 C199.3125,552.4844 199.0313,552.3438 198.7344,552.3438 C198.4375,552.3438 198.2344,552.4375 198.0156,552.75 L197.8438,552.6719 Z " fill="#000000"/><text fill="#000000" font-family="sans-serif" font-size="14" lengthAdjust="spacing" textLength="74" x="209.5" y="561.8467">ProductA2</text><line style="stroke:#181818;stroke-width:0.5;" x1="181.5" x2="285.5" y1="573" y2="573"/><line style="stroke:#181818;stroke-width:0.5;" x1="181.5" x2="285.5" y1="581" y2="581"/></g><!--class ProductB2--><g id="elem_ProductB2"><rect codeLine="19" fill="#F1F1F1" height="48" id="ProductB2" rx="2.5" ry="2.5" style="stroke:#181818;stroke-width:0.5;" width="106" x="466.5" y="541"/><ellipse cx="481.5" cy="557" fill="#ADD1B2" rx="11" ry="11" style="stroke:#181818;stroke-width:1.0;"/><path d="M483.8438,552.6719 C482.9063,552.2344 482.3125,552.0938 481.4375,552.0938 C478.8125,552.0938 476.8125,554.1719 476.8125,556.8906 L476.8125,558.0156 C476.8125,560.5938 478.9219,562.4844 481.8125,562.4844 C483.0313,562.4844 484.1875,562.1875 484.9375,561.6406 C485.5156,561.2344 485.8438,560.7813 485.8438,560.3906 C485.8438,559.9375 485.4531,559.5469 484.9844,559.5469 C484.7656,559.5469 484.5625,559.625 484.375,559.8125 C483.9219,560.2969 483.9219,560.2969 483.7344,560.3906 C483.3125,560.6563 482.625,560.7813 481.8594,560.7813 C479.8125,560.7813 478.5156,559.6875 478.5156,557.9844 L478.5156,556.8906 C478.5156,555.1094 479.7656,553.7969 481.5,553.7969 C482.0781,553.7969 482.6875,553.9531 483.1563,554.2031 C483.6406,554.4844 483.8125,554.7031 483.9063,555.1094 C483.9688,555.5156 484,555.6406 484.1406,555.7656 C484.2813,555.9063 484.5156,556.0156 484.7344,556.0156 C485,556.0156 485.2656,555.875 485.4375,555.6563 C485.5469,555.5 485.5781,555.3125 485.5781,554.8906 L485.5781,553.4688 C485.5781,553.0313 485.5625,552.9063 485.4688,552.75 C485.3125,552.4844 485.0313,552.3438 484.7344,552.3438 C484.4375,552.3438 484.2344,552.4375 484.0156,552.75 L483.8438,552.6719 Z " fill="#000000"/><text fill="#000000" font-family="sans-serif" font-size="14" lengthAdjust="spacing" textLength="74" x="495.5" y="561.8467">ProductB2</text><line style="stroke:#181818;stroke-width:0.5;" x1="467.5" x2="571.5" y1="573" y2="573"/><line style="stroke:#181818;stroke-width:0.5;" x1="467.5" x2="571.5" y1="581" y2="581"/></g><!--reverse link AbstractProductA to ProductA1--><g id="link_AbstractProductA_ProductA1"><path codeLine="21" d="M86.5363,500.5778 C87.1805,514.3622 87.8672,529.0574 88.4172,540.8279 " fill="none" id="AbstractProductA-backto-ProductA1" style="stroke:#181818;stroke-width:1.0;"/><polygon fill="none" points="79.5262,500.5224,85.5849,480.217,93.5109,499.8688,79.5262,500.5224" style="stroke:#181818;stroke-width:1.0;"/></g><!--reverse link AbstractProductA to ProductA2--><g id="link_AbstractProductA_ProductA2"><path codeLine="22" d="M133.4,492.1158 C155.675,508.1123 181.427,526.6052 201.232,540.8279 " fill="none" id="AbstractProductA-backto-ProductA2" style="stroke:#181818;stroke-width:1.0;"/><polygon fill="none" points="128.993,497.5692,116.831,480.217,137.159,486.198,128.993,497.5692" style="stroke:#181818;stroke-width:1.0;"/></g><!--reverse link AbstractProductB to ProductB1--><g id="link_AbstractProductB_ProductB1"><path codeLine="23" d="M502.257,490.4702 C474.274,506.8319 441.294,526.1147 416.131,540.8279 " fill="none" id="AbstractProductB-backto-ProductB1" style="stroke:#181818;stroke-width:1.0;"/><polygon fill="none" points="498.993,484.27,519.792,480.217,506.06,496.3553,498.993,484.27" style="stroke:#181818;stroke-width:1.0;"/></g><!--reverse link AbstractProductB to ProductB2--><g id="link_AbstractProductB_ProductB2"><path codeLine="24" d="M543.76,499.1046 C538.45,513.3088 532.72,528.637 528.162,540.8279 " fill="none" id="AbstractProductB-backto-ProductB2" style="stroke:#181818;stroke-width:1.0;"/><polygon fill="none" points="537.26,496.5,550.821,480.217,550.374,501.4024,537.26,496.5" style="stroke:#181818;stroke-width:1.0;"/></g><!--reverse link AbstractFactory to Factory1--><g id="link_AbstractFactory_Factory1"><path codeLine="26" d="M231.582,233.344 C230.976,252.252 230.322,272.668 229.772,289.804 " fill="none" id="AbstractFactory-backto-Factory1" style="stroke:#181818;stroke-width:1.0;"/><polygon fill="none" points="224.588,233.034,232.225,213.269,238.581,233.483,224.588,233.034" style="stroke:#181818;stroke-width:1.0;"/></g><!--reverse link AbstractFactory to Factory2--><g id="link_AbstractFactory_Factory2"><path codeLine="27" d="M290.126,227.037 C311.902,247.626 336.354,270.744 356.513,289.804 " fill="none" id="AbstractFactory-backto-Factory2" style="stroke:#181818;stroke-width:1.0;"/><polygon fill="none" points="285.287,232.096,275.563,213.269,294.905,221.923,285.287,232.096" style="stroke:#181818;stroke-width:1.0;"/></g><!--link Factory1 to ProductA1--><g id="link_Factory1_ProductA1"><path codeLine="29" d="M221.115,371.058 C213.975,402.411 201.012,446.386 179.5,480 C165.362,502.0922 144.097,522.3065 125.787,537.3667 " fill="none" id="Factory1-to-ProductA1" style="stroke:#181818;stroke-width:1.0;stroke-dasharray:7.0,7.0;"/><polygon fill="#181818" points="121.687,540.6939,131.1961,538.1295,125.5697,537.5436,126.1556,531.9171,121.687,540.6939" style="stroke:#181818;stroke-width:1.0;"/></g><!--link Factory1 to ProductB1--><g id="link_Factory1_ProductB1"><path codeLine="30" d="M253.774,371.204 C283.725,418.256 332.847,495.4235 358.936,536.4071 " fill="none" id="Factory1-to-ProductB1" style="stroke:#181818;stroke-width:1.0;stroke-dasharray:7.0,7.0;"/><polygon fill="#181818" points="361.694,540.7398,360.236,530.9995,359.0093,536.5217,353.4871,535.295,361.694,540.7398" style="stroke:#181818;stroke-width:1.0;"/></g><!--link Factory2 to ProductA2--><g id="link_Factory2_ProductA2"><path codeLine="31" d="M370.323,371.204 C336.932,418.256 282.167,495.4235 253.082,536.4071 " fill="none" id="Factory2-to-ProductA2" style="stroke:#181818;stroke-width:1.0;stroke-dasharray:7.0,7.0;"/><polygon fill="#181818" points="250.007,540.7398,258.4781,535.7158,252.901,536.6625,251.9543,531.0854,250.007,540.7398" style="stroke:#181818;stroke-width:1.0;"/></g><!--link Factory2 to ProductB2--><g id="link_Factory2_ProductB2"><path codeLine="32" d="M414.052,371.1 C426.478,401.504 444.992,444.203 464.5,480 C475.098,499.447 488.724,520.2816 499.762,536.3362 " fill="none" id="Factory2-to-ProductB2" style="stroke:#181818;stroke-width:1.0;stroke-dasharray:7.0,7.0;"/><polygon fill="#181818" points="502.802,540.7325,500.9735,531.0549,499.9583,536.6199,494.3933,535.6048,502.802,540.7325" style="stroke:#181818;stroke-width:1.0;"/></g><!--link Client to AbstractProductA--><g id="link_Client_AbstractProductA"><path codeLine="34" d="M205.411,55.34 C184.956,73.946 158.334,101.814 143.5,132 C94.2042,232.317 85.8105,368.455 84.5818,426.686 " fill="none" id="Client-to-AbstractProductA" style="stroke:#181818;stroke-width:1.0;"/><polygon fill="#181818" points="84.4893,431.743,88.6558,422.8188,84.5822,426.7439,80.6571,422.6703,84.4893,431.743" style="stroke:#181818;stroke-width:1.0;"/><text fill="#000000" font-family="sans-serif" font-size="13" lengthAdjust="spacing" textLength="48" x="106.5" y="256.0669">creates</text></g><!--link Client to AbstractProductB--><g id="link_Client_AbstractProductB"><path codeLine="35" d="M261.427,55.109 C311.255,97.474 416.524,192.237 483.5,290 C513.911,334.39 537.543,392.897 549.924,426.989 " fill="none" id="Client-to-AbstractProductB" style="stroke:#181818;stroke-width:1.0;"/><polygon fill="#181818" points="551.669,431.838,552.3827,422.015,549.9747,427.1338,544.856,424.7258,551.669,431.838" style="stroke:#181818;stroke-width:1.0;"/><text fill="#000000" font-family="sans-serif" font-size="13" lengthAdjust="spacing" textLength="48" x="463.5" y="256.0669">creates</text></g><!--link Client to AbstractFactory--><g id="link_Client_AbstractFactory"><path codeLine="36" d="M233.5,55.036 C233.5,74.47 233.5,102.86 233.5,126.744 " fill="none" id="Client-to-AbstractFactory" style="stroke:#181818;stroke-width:1.0;"/><polygon fill="#181818" points="233.5,131.767,237.5,122.767,233.5,126.767,229.5,122.767,233.5,131.767" style="stroke:#181818;stroke-width:1.0;"/><text fill="#000000" font-family="sans-serif" font-size="13" lengthAdjust="spacing" textLength="34" x="234.5" y="98.0669">holds</text></g><!--SRC=[Iyv9B2vMSCx9JCqhuKfCAYufIamkKKW6Ypf2kMv0d5zKgL3DfG04oKMfYIMf0KNvAQN99OuQcfY2Ja31MYw86L2zXfHeDY9HCmvlm3GIa7U2MWvJReZATqBZEngXoHjnSS6rAkYMwjROORe0hfU00YSS9ZZ15HZXKi053tbK1L1XBdZOOfT6QDVJqxD32Woiuaw62FDGr1jX5mS54YJDAUZgOdfVmGeQhSLuL3dXLmLBj5OA6VavASK0]--></g></svg>