<?xml version="1.0" encoding="UTF-8" standalone="no"?><svg xmlns="http://www.w3.org/2000/svg" xmlns:xlink="http://www.w3.org/1999/xlink" contentStyleType="text/css" height="343px" preserveAspectRatio="none" style="width:439px;height:343px;background:#FFFFFF;" version="1.1" viewBox="0 0 439 343" width="439px" zoomAndPan="magnify"><defs/><g><!--class TCPConnectionContext--><g id="elem_TCPConnectionContext"><rect codeLine="1" fill="#F1F1F1" height="80.5938" id="TCPConnectionContext" rx="2.5" ry="2.5" style="stroke:#181818;stroke-width:0.5;" width="202" x="136.5" y="7"/><ellipse cx="151.5" cy="23" fill="#ADD1B2" rx="11" ry="11" style="stroke:#181818;stroke-width:1.0;"/><path d="M153.8438,18.6719 C152.9063,18.2344 152.3125,18.0938 151.4375,18.0938 C148.8125,18.0938 146.8125,20.1719 146.8125,22.8906 L146.8125,24.0156 C146.8125,26.5938 148.9219,28.4844 151.8125,28.4844 C153.0313,28.4844 154.1875,28.1875 154.9375,27.6406 C155.5156,27.2344 155.8438,26.7813 155.8438,26.3906 C155.8438,25.9375 155.4531,25.5469 154.9844,25.5469 C154.7656,25.5469 154.5625,25.625 154.375,25.8125 C153.9219,26.2969 153.9219,26.2969 153.7344,26.3906 C153.3125,26.6563 152.625,26.7813 151.8594,26.7813 C149.8125,26.7813 148.5156,25.6875 148.5156,23.9844 L148.5156,22.8906 C148.5156,21.1094 149.7656,19.7969 151.5,19.7969 C152.0781,19.7969 152.6875,19.9531 153.1563,20.2031 C153.6406,20.4844 153.8125,20.7031 153.9063,21.1094 C153.9688,21.5156 154,21.6406 154.1406,21.7656 C154.2813,21.9063 154.5156,22.0156 154.7344,22.0156 C155,22.0156 155.2656,21.875 155.4375,21.6563 C155.5469,21.5 155.5781,21.3125 155.5781,20.8906 L155.5781,19.4688 C155.5781,19.0313 155.5625,18.9063 155.4688,18.75 C155.3125,18.4844 155.0313,18.3438 154.7344,18.3438 C154.4375,18.3438 154.2344,18.4375 154.0156,18.75 L153.8438,18.6719 Z " fill="#000000"/><text fill="#000000" font-family="sans-serif" font-size="14" lengthAdjust="spacing" textLength="170" x="165.5" y="27.8467">TCPConnectionContext</text><line style="stroke:#181818;stroke-width:0.5;" x1="137.5" x2="337.5" y1="39" y2="39"/><text fill="#000000" font-family="sans-serif" font-size="14" lengthAdjust="spacing" textLength="110" x="142.5" y="55.9951">TCPState state</text><line style="stroke:#181818;stroke-width:0.5;" x1="137.5" x2="337.5" y1="63.2969" y2="63.2969"/><text fill="#000000" font-family="sans-serif" font-size="14" lengthAdjust="spacing" textLength="99" x="142.5" y="80.292">void request()</text></g><!--class TCPState--><g id="elem_TCPState"><rect codeLine="5" fill="#F1F1F1" height="64.2969" id="TCPState" rx="2.5" ry="2.5" style="stroke:#181818;stroke-width:0.5;" width="96" x="189.5" y="148"/><ellipse cx="204.5" cy="164" fill="#B4A7E5" rx="11" ry="11" style="stroke:#181818;stroke-width:1.0;"/><path d="M205.4531,160.7813 L207.1719,160.7813 C207.5625,160.7813 207.75,160.75 207.875,160.6719 C208.1406,160.5156 208.2813,160.2344 208.2813,159.9375 C208.2813,159.6719 208.1719,159.4063 207.9375,159.2344 C207.7656,159.125 207.625,159.0938 207.1719,159.0938 L202.0313,159.0938 C201.5938,159.0938 201.4688,159.1094 201.3125,159.2031 C201.0625,159.3594 200.9063,159.6563 200.9063,159.9375 C200.9063,160.2188 201.0469,160.4688 201.2656,160.6406 C201.4219,160.75 201.6094,160.7813 202.0313,160.7813 L203.75,160.7813 L203.75,167.2969 L202.0313,167.2969 C201.5938,167.2969 201.4688,167.3125 201.3125,167.4219 C201.0625,167.5781 200.9063,167.8594 200.9063,168.1563 C200.9063,168.4063 201.0469,168.6719 201.2656,168.8281 C201.4219,168.9531 201.625,169 202.0313,169 L207.1719,169 C207.9219,169 208.2813,168.7188 208.2813,168.1563 C208.2813,167.875 208.1719,167.625 207.9375,167.4531 C207.7656,167.3281 207.625,167.2969 207.1719,167.2969 L205.4531,167.2969 L205.4531,160.7813 Z " fill="#000000"/><text fill="#000000" font-family="sans-serif" font-size="14" font-style="italic" lengthAdjust="spacing" textLength="64" x="218.5" y="168.8467">TCPState</text><line style="stroke:#181818;stroke-width:0.5;" x1="190.5" x2="284.5" y1="180" y2="180"/><line style="stroke:#181818;stroke-width:0.5;" x1="190.5" x2="284.5" y1="188" y2="188"/><text fill="#000000" font-family="sans-serif" font-size="14" lengthAdjust="spacing" textLength="58" x="195.5" y="204.9951">handle()</text></g><!--class TCPEstablished--><g id="elem_TCPEstablished"><rect codeLine="8" fill="#F1F1F1" height="64.2969" id="TCPEstablished" rx="2.5" ry="2.5" style="stroke:#181818;stroke-width:0.5;" width="143" x="7" y="272"/><ellipse cx="22" cy="288" fill="#ADD1B2" rx="11" ry="11" style="stroke:#181818;stroke-width:1.0;"/><path d="M24.3438,283.6719 C23.4063,283.2344 22.8125,283.0938 21.9375,283.0938 C19.3125,283.0938 17.3125,285.1719 17.3125,287.8906 L17.3125,289.0156 C17.3125,291.5938 19.4219,293.4844 22.3125,293.4844 C23.5313,293.4844 24.6875,293.1875 25.4375,292.6406 C26.0156,292.2344 26.3438,291.7813 26.3438,291.3906 C26.3438,290.9375 25.9531,290.5469 25.4844,290.5469 C25.2656,290.5469 25.0625,290.625 24.875,290.8125 C24.4219,291.2969 24.4219,291.2969 24.2344,291.3906 C23.8125,291.6563 23.125,291.7813 22.3594,291.7813 C20.3125,291.7813 19.0156,290.6875 19.0156,288.9844 L19.0156,287.8906 C19.0156,286.1094 20.2656,284.7969 22,284.7969 C22.5781,284.7969 23.1875,284.9531 23.6563,285.2031 C24.1406,285.4844 24.3125,285.7031 24.4063,286.1094 C24.4688,286.5156 24.5,286.6406 24.6406,286.7656 C24.7813,286.9063 25.0156,287.0156 25.2344,287.0156 C25.5,287.0156 25.7656,286.875 25.9375,286.6563 C26.0469,286.5 26.0781,286.3125 26.0781,285.8906 L26.0781,284.4688 C26.0781,284.0313 26.0625,283.9063 25.9688,283.75 C25.8125,283.4844 25.5313,283.3438 25.2344,283.3438 C24.9375,283.3438 24.7344,283.4375 24.5156,283.75 L24.3438,283.6719 Z " fill="#000000"/><text fill="#000000" font-family="sans-serif" font-size="14" lengthAdjust="spacing" textLength="111" x="36" y="292.8467">TCPEstablished</text><line style="stroke:#181818;stroke-width:0.5;" x1="8" x2="149" y1="304" y2="304"/><line style="stroke:#181818;stroke-width:0.5;" x1="8" x2="149" y1="312" y2="312"/><text fill="#000000" font-family="sans-serif" font-size="14" lengthAdjust="spacing" textLength="58" x="13" y="328.9951">handle()</text></g><!--class TCPListen--><g id="elem_TCPListen"><rect codeLine="11" fill="#F1F1F1" height="64.2969" id="TCPListen" rx="2.5" ry="2.5" style="stroke:#181818;stroke-width:0.5;" width="104" x="185.5" y="272"/><ellipse cx="200.5" cy="288" fill="#ADD1B2" rx="11" ry="11" style="stroke:#181818;stroke-width:1.0;"/><path d="M202.8438,283.6719 C201.9063,283.2344 201.3125,283.0938 200.4375,283.0938 C197.8125,283.0938 195.8125,285.1719 195.8125,287.8906 L195.8125,289.0156 C195.8125,291.5938 197.9219,293.4844 200.8125,293.4844 C202.0313,293.4844 203.1875,293.1875 203.9375,292.6406 C204.5156,292.2344 204.8438,291.7813 204.8438,291.3906 C204.8438,290.9375 204.4531,290.5469 203.9844,290.5469 C203.7656,290.5469 203.5625,290.625 203.375,290.8125 C202.9219,291.2969 202.9219,291.2969 202.7344,291.3906 C202.3125,291.6563 201.625,291.7813 200.8594,291.7813 C198.8125,291.7813 197.5156,290.6875 197.5156,288.9844 L197.5156,287.8906 C197.5156,286.1094 198.7656,284.7969 200.5,284.7969 C201.0781,284.7969 201.6875,284.9531 202.1563,285.2031 C202.6406,285.4844 202.8125,285.7031 202.9063,286.1094 C202.9688,286.5156 203,286.6406 203.1406,286.7656 C203.2813,286.9063 203.5156,287.0156 203.7344,287.0156 C204,287.0156 204.2656,286.875 204.4375,286.6563 C204.5469,286.5 204.5781,286.3125 204.5781,285.8906 L204.5781,284.4688 C204.5781,284.0313 204.5625,283.9063 204.4688,283.75 C204.3125,283.4844 204.0313,283.3438 203.7344,283.3438 C203.4375,283.3438 203.2344,283.4375 203.0156,283.75 L202.8438,283.6719 Z " fill="#000000"/><text fill="#000000" font-family="sans-serif" font-size="14" lengthAdjust="spacing" textLength="72" x="214.5" y="292.8467">TCPListen</text><line style="stroke:#181818;stroke-width:0.5;" x1="186.5" x2="288.5" y1="304" y2="304"/><line style="stroke:#181818;stroke-width:0.5;" x1="186.5" x2="288.5" y1="312" y2="312"/><text fill="#000000" font-family="sans-serif" font-size="14" lengthAdjust="spacing" textLength="58" x="191.5" y="328.9951">handle()</text></g><!--class TCPClosed--><g id="elem_TCPClosed"><rect codeLine="14" fill="#F1F1F1" height="64.2969" id="TCPClosed" rx="2.5" ry="2.5" style="stroke:#181818;stroke-width:0.5;" width="108" x="324.5" y="272"/><ellipse cx="339.5" cy="288" fill="#ADD1B2" rx="11" ry="11" style="stroke:#181818;stroke-width:1.0;"/><path d="M341.8438,283.6719 C340.9063,283.2344 340.3125,283.0938 339.4375,283.0938 C336.8125,283.0938 334.8125,285.1719 334.8125,287.8906 L334.8125,289.0156 C334.8125,291.5938 336.9219,293.4844 339.8125,293.4844 C341.0313,293.4844 342.1875,293.1875 342.9375,292.6406 C343.5156,292.2344 343.8438,291.7813 343.8438,291.3906 C343.8438,290.9375 343.4531,290.5469 342.9844,290.5469 C342.7656,290.5469 342.5625,290.625 342.375,290.8125 C341.9219,291.2969 341.9219,291.2969 341.7344,291.3906 C341.3125,291.6563 340.625,291.7813 339.8594,291.7813 C337.8125,291.7813 336.5156,290.6875 336.5156,288.9844 L336.5156,287.8906 C336.5156,286.1094 337.7656,284.7969 339.5,284.7969 C340.0781,284.7969 340.6875,284.9531 341.1563,285.2031 C341.6406,285.4844 341.8125,285.7031 341.9063,286.1094 C341.9688,286.5156 342,286.6406 342.1406,286.7656 C342.2813,286.9063 342.5156,287.0156 342.7344,287.0156 C343,287.0156 343.2656,286.875 343.4375,286.6563 C343.5469,286.5 343.5781,286.3125 343.5781,285.8906 L343.5781,284.4688 C343.5781,284.0313 343.5625,283.9063 343.4688,283.75 C343.3125,283.4844 343.0313,283.3438 342.7344,283.3438 C342.4375,283.3438 342.2344,283.4375 342.0156,283.75 L341.8438,283.6719 Z " fill="#000000"/><text fill="#000000" font-family="sans-serif" font-size="14" lengthAdjust="spacing" textLength="76" x="353.5" y="292.8467">TCPClosed</text><line style="stroke:#181818;stroke-width:0.5;" x1="325.5" x2="431.5" y1="304" y2="304"/><line style="stroke:#181818;stroke-width:0.5;" x1="325.5" x2="431.5" y1="312" y2="312"/><text fill="#000000" font-family="sans-serif" font-size="14" lengthAdjust="spacing" textLength="58" x="330.5" y="328.9951">handle()</text></g><!--link TCPConnectionContext to TCPState--><g id="link_TCPConnectionContext_TCPState"><path codeLine="18" d="M237.5,100.008 C237.5,100.008 237.5,123.915 237.5,134.75 " fill="none" id="TCPConnectionContext-TCPState" style="stroke:#181818;stroke-width:1.0;"/><polygon fill="none" points="237.5,88.008,233.5,94.008,237.5,100.008,241.5,94.008,237.5,88.008" style="stroke:#181818;stroke-width:1.0;"/><polygon fill="#181818" points="237.5,147.908,241.5,138.908,237.5,142.908,233.5,138.908,237.5,147.908" style="stroke:#181818;stroke-width:1.0;"/><line style="stroke:#181818;stroke-width:1.0;" x1="237.5" x2="237.5" y1="142.908" y2="134.908"/></g><!--reverse link TCPState to TCPEstablished--><g id="link_TCPState_TCPEstablished"><path codeLine="19" d="M180.806,224.501 C160.368,240.1834 137.732,257.5515 118.96,271.9554 " fill="none" id="TCPState-backto-TCPEstablished" style="stroke:#181818;stroke-width:1.0;"/><polygon fill="none" points="176.838,218.723,196.966,212.101,185.36,229.83,176.838,218.723" style="stroke:#181818;stroke-width:1.0;"/></g><!--reverse link TCPState to TCPListen--><g id="link_TCPState_TCPListen"><path codeLine="20" d="M237.5,232.341 C237.5,245.8065 237.5,259.9163 237.5,271.9554 " fill="none" id="TCPState-backto-TCPListen" style="stroke:#181818;stroke-width:1.0;"/><polygon fill="none" points="230.5,232.101,237.5,212.101,244.5,232.101,230.5,232.101" style="stroke:#181818;stroke-width:1.0;"/></g><!--reverse link TCPState to TCPClosed--><g id="link_TCPState_TCPClosed"><path codeLine="21" d="M288.589,225.204 C306.499,240.7012 326.222,257.7665 342.621,271.9554 " fill="none" id="TCPState-backto-TCPClosed" style="stroke:#181818;stroke-width:1.0;"/><polygon fill="none" points="283.989,230.481,273.445,212.101,293.15,219.894,283.989,230.481" style="stroke:#181818;stroke-width:1.0;"/></g><!--SRC=[Iyv9B2vM274ESCxFoqjDBidCpmEoIb8hIXIgkHI002WLN99OagfG32B1GcNvcIaAHQc5fQd59HgQNBLScK0DHMc9oQa8rH3D6ObvAJcfO3N9C8jSWGObvMGMPwIcu57barbSafg7Hu5pJdunDXEuiFebNrVN3kuuBhWhRMfqTT7SX2a9SGgcECG50000]--></g></svg>