<?xml version="1.0" encoding="UTF-8" standalone="no"?><svg xmlns="http://www.w3.org/2000/svg" xmlns:xlink="http://www.w3.org/1999/xlink" contentStyleType="text/css" height="343px" preserveAspectRatio="none" style="width:417px;height:343px;background:#FFFFFF;" version="1.1" viewBox="0 0 417 343" width="417px" zoomAndPan="magnify"><defs/><g><!--class SolutionContext--><g id="elem_SolutionContext"><rect codeLine="1" fill="#F1F1F1" height="80.5938" id="SolutionContext" rx="2.5" ry="2.5" style="stroke:#181818;stroke-width:0.5;" width="154" x="131.5" y="7"/><ellipse cx="148.3" cy="23" fill="#ADD1B2" rx="11" ry="11" style="stroke:#181818;stroke-width:1.0;"/><path d="M150.6438,18.6719 C149.7063,18.2344 149.1125,18.0938 148.2375,18.0938 C145.6125,18.0938 143.6125,20.1719 143.6125,22.8906 L143.6125,24.0156 C143.6125,26.5938 145.7219,28.4844 148.6125,28.4844 C149.8313,28.4844 150.9875,28.1875 151.7375,27.6406 C152.3156,27.2344 152.6438,26.7813 152.6438,26.3906 C152.6438,25.9375 152.2531,25.5469 151.7844,25.5469 C151.5656,25.5469 151.3625,25.625 151.175,25.8125 C150.7219,26.2969 150.7219,26.2969 150.5344,26.3906 C150.1125,26.6563 149.425,26.7813 148.6594,26.7813 C146.6125,26.7813 145.3156,25.6875 145.3156,23.9844 L145.3156,22.8906 C145.3156,21.1094 146.5656,19.7969 148.3,19.7969 C148.8781,19.7969 149.4875,19.9531 149.9563,20.2031 C150.4406,20.4844 150.6125,20.7031 150.7063,21.1094 C150.7688,21.5156 150.8,21.6406 150.9406,21.7656 C151.0813,21.9063 151.3156,22.0156 151.5344,22.0156 C151.8,22.0156 152.0656,21.875 152.2375,21.6563 C152.3469,21.5 152.3781,21.3125 152.3781,20.8906 L152.3781,19.4688 C152.3781,19.0313 152.3625,18.9063 152.2688,18.75 C152.1125,18.4844 151.8313,18.3438 151.5344,18.3438 C151.2375,18.3438 151.0344,18.4375 150.8156,18.75 L150.6438,18.6719 Z " fill="#000000"/><text fill="#000000" font-family="sans-serif" font-size="14" lengthAdjust="spacing" textLength="118" x="162.7" y="27.8467">SolutionContext</text><line style="stroke:#181818;stroke-width:0.5;" x1="132.5" x2="284.5" y1="39" y2="39"/><text fill="#000000" font-family="sans-serif" font-size="14" lengthAdjust="spacing" textLength="132" x="137.5" y="55.9951">IStrategy strategy</text><line style="stroke:#181818;stroke-width:0.5;" x1="132.5" x2="284.5" y1="63.2969" y2="63.2969"/><text fill="#000000" font-family="sans-serif" font-size="14" lengthAdjust="spacing" textLength="142" x="137.5" y="80.292">void solveProblem()</text></g><!--class IStrategy--><g id="elem_IStrategy"><rect codeLine="5" fill="#F1F1F1" height="64.2969" id="IStrategy" rx="2.5" ry="2.5" style="stroke:#181818;stroke-width:0.5;" width="111" x="153" y="148"/><ellipse cx="174.75" cy="164" fill="#B4A7E5" rx="11" ry="11" style="stroke:#181818;stroke-width:1.0;"/><path d="M175.7031,160.7813 L177.4219,160.7813 C177.8125,160.7813 178,160.75 178.125,160.6719 C178.3906,160.5156 178.5313,160.2344 178.5313,159.9375 C178.5313,159.6719 178.4219,159.4063 178.1875,159.2344 C178.0156,159.125 177.875,159.0938 177.4219,159.0938 L172.2813,159.0938 C171.8438,159.0938 171.7188,159.1094 171.5625,159.2031 C171.3125,159.3594 171.1563,159.6563 171.1563,159.9375 C171.1563,160.2188 171.2969,160.4688 171.5156,160.6406 C171.6719,160.75 171.8594,160.7813 172.2813,160.7813 L174,160.7813 L174,167.2969 L172.2813,167.2969 C171.8438,167.2969 171.7188,167.3125 171.5625,167.4219 C171.3125,167.5781 171.1563,167.8594 171.1563,168.1563 C171.1563,168.4063 171.2969,168.6719 171.5156,168.8281 C171.6719,168.9531 171.875,169 172.2813,169 L177.4219,169 C178.1719,169 178.5313,168.7188 178.5313,168.1563 C178.5313,167.875 178.4219,167.625 178.1875,167.4531 C178.0156,167.3281 177.875,167.2969 177.4219,167.2969 L175.7031,167.2969 L175.7031,160.7813 Z " fill="#000000"/><text fill="#000000" font-family="sans-serif" font-size="14" font-style="italic" lengthAdjust="spacing" textLength="64" x="190.25" y="168.8467">IStrategy</text><line style="stroke:#181818;stroke-width:0.5;" x1="154" x2="263" y1="180" y2="180"/><line style="stroke:#181818;stroke-width:0.5;" x1="154" x2="263" y1="188" y2="188"/><text fill="#000000" font-family="sans-serif" font-size="14" lengthAdjust="spacing" textLength="99" x="159" y="204.9951">int compute()</text></g><!--class StrategyA--><g id="elem_StrategyA"><rect codeLine="8" fill="#F1F1F1" height="64.2969" id="StrategyA" rx="2.5" ry="2.5" style="stroke:#181818;stroke-width:0.5;" width="111" x="7" y="272"/><ellipse cx="24.7" cy="288" fill="#ADD1B2" rx="11" ry="11" style="stroke:#181818;stroke-width:1.0;"/><path d="M27.0438,283.6719 C26.1063,283.2344 25.5125,283.0938 24.6375,283.0938 C22.0125,283.0938 20.0125,285.1719 20.0125,287.8906 L20.0125,289.0156 C20.0125,291.5938 22.1219,293.4844 25.0125,293.4844 C26.2313,293.4844 27.3875,293.1875 28.1375,292.6406 C28.7156,292.2344 29.0438,291.7813 29.0438,291.3906 C29.0438,290.9375 28.6531,290.5469 28.1844,290.5469 C27.9656,290.5469 27.7625,290.625 27.575,290.8125 C27.1219,291.2969 27.1219,291.2969 26.9344,291.3906 C26.5125,291.6563 25.825,291.7813 25.0594,291.7813 C23.0125,291.7813 21.7156,290.6875 21.7156,288.9844 L21.7156,287.8906 C21.7156,286.1094 22.9656,284.7969 24.7,284.7969 C25.2781,284.7969 25.8875,284.9531 26.3563,285.2031 C26.8406,285.4844 27.0125,285.7031 27.1063,286.1094 C27.1688,286.5156 27.2,286.6406 27.3406,286.7656 C27.4813,286.9063 27.7156,287.0156 27.9344,287.0156 C28.2,287.0156 28.4656,286.875 28.6375,286.6563 C28.7469,286.5 28.7781,286.3125 28.7781,285.8906 L28.7781,284.4688 C28.7781,284.0313 28.7625,283.9063 28.6688,283.75 C28.5125,283.4844 28.2313,283.3438 27.9344,283.3438 C27.6375,283.3438 27.4344,283.4375 27.2156,283.75 L27.0438,283.6719 Z " fill="#000000"/><text fill="#000000" font-family="sans-serif" font-size="14" lengthAdjust="spacing" textLength="73" x="39.3" y="292.8467">StrategyA</text><line style="stroke:#181818;stroke-width:0.5;" x1="8" x2="117" y1="304" y2="304"/><line style="stroke:#181818;stroke-width:0.5;" x1="8" x2="117" y1="312" y2="312"/><text fill="#000000" font-family="sans-serif" font-size="14" lengthAdjust="spacing" textLength="99" x="13" y="328.9951">int compute()</text></g><!--class StrategyB--><g id="elem_StrategyB"><rect codeLine="11" fill="#F1F1F1" height="64.2969" id="StrategyB" rx="2.5" ry="2.5" style="stroke:#181818;stroke-width:0.5;" width="111" x="153" y="272"/><ellipse cx="170.7" cy="288" fill="#ADD1B2" rx="11" ry="11" style="stroke:#181818;stroke-width:1.0;"/><path d="M173.0438,283.6719 C172.1063,283.2344 171.5125,283.0938 170.6375,283.0938 C168.0125,283.0938 166.0125,285.1719 166.0125,287.8906 L166.0125,289.0156 C166.0125,291.5938 168.1219,293.4844 171.0125,293.4844 C172.2313,293.4844 173.3875,293.1875 174.1375,292.6406 C174.7156,292.2344 175.0438,291.7813 175.0438,291.3906 C175.0438,290.9375 174.6531,290.5469 174.1844,290.5469 C173.9656,290.5469 173.7625,290.625 173.575,290.8125 C173.1219,291.2969 173.1219,291.2969 172.9344,291.3906 C172.5125,291.6563 171.825,291.7813 171.0594,291.7813 C169.0125,291.7813 167.7156,290.6875 167.7156,288.9844 L167.7156,287.8906 C167.7156,286.1094 168.9656,284.7969 170.7,284.7969 C171.2781,284.7969 171.8875,284.9531 172.3563,285.2031 C172.8406,285.4844 173.0125,285.7031 173.1063,286.1094 C173.1688,286.5156 173.2,286.6406 173.3406,286.7656 C173.4813,286.9063 173.7156,287.0156 173.9344,287.0156 C174.2,287.0156 174.4656,286.875 174.6375,286.6563 C174.7469,286.5 174.7781,286.3125 174.7781,285.8906 L174.7781,284.4688 C174.7781,284.0313 174.7625,283.9063 174.6688,283.75 C174.5125,283.4844 174.2313,283.3438 173.9344,283.3438 C173.6375,283.3438 173.4344,283.4375 173.2156,283.75 L173.0438,283.6719 Z " fill="#000000"/><text fill="#000000" font-family="sans-serif" font-size="14" lengthAdjust="spacing" textLength="73" x="185.3" y="292.8467">StrategyB</text><line style="stroke:#181818;stroke-width:0.5;" x1="154" x2="263" y1="304" y2="304"/><line style="stroke:#181818;stroke-width:0.5;" x1="154" x2="263" y1="312" y2="312"/><text fill="#000000" font-family="sans-serif" font-size="14" lengthAdjust="spacing" textLength="99" x="159" y="328.9951">int compute()</text></g><!--class StrategyC--><g id="elem_StrategyC"><rect codeLine="14" fill="#F1F1F1" height="64.2969" id="StrategyC" rx="2.5" ry="2.5" style="stroke:#181818;stroke-width:0.5;" width="111" x="299" y="272"/><ellipse cx="316.7" cy="288" fill="#ADD1B2" rx="11" ry="11" style="stroke:#181818;stroke-width:1.0;"/><path d="M319.0438,283.6719 C318.1063,283.2344 317.5125,283.0938 316.6375,283.0938 C314.0125,283.0938 312.0125,285.1719 312.0125,287.8906 L312.0125,289.0156 C312.0125,291.5938 314.1219,293.4844 317.0125,293.4844 C318.2313,293.4844 319.3875,293.1875 320.1375,292.6406 C320.7156,292.2344 321.0438,291.7813 321.0438,291.3906 C321.0438,290.9375 320.6531,290.5469 320.1844,290.5469 C319.9656,290.5469 319.7625,290.625 319.575,290.8125 C319.1219,291.2969 319.1219,291.2969 318.9344,291.3906 C318.5125,291.6563 317.825,291.7813 317.0594,291.7813 C315.0125,291.7813 313.7156,290.6875 313.7156,288.9844 L313.7156,287.8906 C313.7156,286.1094 314.9656,284.7969 316.7,284.7969 C317.2781,284.7969 317.8875,284.9531 318.3563,285.2031 C318.8406,285.4844 319.0125,285.7031 319.1063,286.1094 C319.1688,286.5156 319.2,286.6406 319.3406,286.7656 C319.4813,286.9063 319.7156,287.0156 319.9344,287.0156 C320.2,287.0156 320.4656,286.875 320.6375,286.6563 C320.7469,286.5 320.7781,286.3125 320.7781,285.8906 L320.7781,284.4688 C320.7781,284.0313 320.7625,283.9063 320.6688,283.75 C320.5125,283.4844 320.2313,283.3438 319.9344,283.3438 C319.6375,283.3438 319.4344,283.4375 319.2156,283.75 L319.0438,283.6719 Z " fill="#000000"/><text fill="#000000" font-family="sans-serif" font-size="14" lengthAdjust="spacing" textLength="73" x="331.3" y="292.8467">StrategyC</text><line style="stroke:#181818;stroke-width:0.5;" x1="300" x2="409" y1="304" y2="304"/><line style="stroke:#181818;stroke-width:0.5;" x1="300" x2="409" y1="312" y2="312"/><text fill="#000000" font-family="sans-serif" font-size="14" lengthAdjust="spacing" textLength="99" x="305" y="328.9951">int compute()</text></g><!--link SolutionContext to IStrategy--><g id="link_SolutionContext_IStrategy"><path codeLine="18" d="M208.5,100.008 C208.5,100.008 208.5,123.915 208.5,134.75 " fill="none" id="SolutionContext-IStrategy" style="stroke:#181818;stroke-width:1.0;"/><polygon fill="none" points="208.5,88.008,204.5,94.008,208.5,100.008,212.5,94.008,208.5,88.008" style="stroke:#181818;stroke-width:1.0;"/><polygon fill="#181818" points="208.5,147.908,212.5,138.908,208.5,142.908,204.5,138.908,208.5,147.908" style="stroke:#181818;stroke-width:1.0;"/><line style="stroke:#181818;stroke-width:1.0;" x1="208.5" x2="208.5" y1="142.908" y2="134.908"/></g><!--reverse link IStrategy to StrategyA--><g id="link_IStrategy_StrategyA"><path codeLine="19" d="M155.881,224.97 C137.261,240.5288 116.718,257.6948 99.6518,271.9554 " fill="none" id="IStrategy-backto-StrategyA" style="stroke:#181818;stroke-width:1.0;"/><polygon fill="none" points="151.445,219.554,171.28,212.101,160.422,230.297,151.445,219.554" style="stroke:#181818;stroke-width:1.0;"/></g><!--reverse link IStrategy to StrategyB--><g id="link_IStrategy_StrategyB"><path codeLine="20" d="M208.5,232.341 C208.5,245.8065 208.5,259.9163 208.5,271.9554 " fill="none" id="IStrategy-backto-StrategyB" style="stroke:#181818;stroke-width:1.0;"/><polygon fill="none" points="201.5,232.101,208.5,212.101,215.5,232.101,201.5,232.101" style="stroke:#181818;stroke-width:1.0;"/></g><!--reverse link IStrategy to StrategyC--><g id="link_IStrategy_StrategyC"><path codeLine="21" d="M261.119,224.97 C279.739,240.5288 300.282,257.6948 317.348,271.9554 " fill="none" id="IStrategy-backto-StrategyC" style="stroke:#181818;stroke-width:1.0;"/><polygon fill="none" points="256.578,230.297,245.72,212.101,265.555,219.554,256.578,230.297" style="stroke:#181818;stroke-width:1.0;"/></g><!--SRC=[Iyv9B2vM2CxFAIt9pCzppiyhIQqeKQZcKW02p-2IeiIIrFHAXM8e0onSbf-Peb2SdrEM6b2KdvIJcgkXoLNBbGdKMPIMc9oAf0rY35168Ja_jw2q91MiCXbY9LIH8r6gd8XIvOn35HUw__9rTUqGxkH2kDYcHbSNuJHS4awu99m1]--></g></svg>