<svg width="1200" height="675" viewBox="0 0 1200 675" fill="none" xmlns="http://www.w3.org/2000/svg">
  <defs>
    <radialGradient id="bg" cx="0" cy="0" r="1" gradientUnits="userSpaceOnUse" gradientTransform="translate(120 80) rotate(32) scale(1000 820)">
      <stop stop-color="#2A5FFF"/>
      <stop offset="0.45" stop-color="#0F172A"/>
      <stop offset="1" stop-color="#020617"/>
    </radialGradient>
    <linearGradient id="orb1" x1="0" y1="0" x2="1" y2="1">
      <stop stop-color="#60A5FA"/>
      <stop offset="1" stop-color="#06B6D4"/>
    </linearGradient>
    <linearGradient id="orb2" x1="0" y1="0" x2="1" y2="1">
      <stop stop-color="#A78BFA"/>
      <stop offset="1" stop-color="#EC4899"/>
    </linearGradient>
    <linearGradient id="orb3" x1="0" y1="0" x2="1" y2="1">
      <stop stop-color="#34D399"/>
      <stop offset="1" stop-color="#22C55E"/>
    </linearGradient>
    <filter id="blur"><feGaussianBlur stdDeviation="6"/></filter>
  </defs>
  <rect width="1200" height="675" fill="url(#bg)"/>
  <g opacity="0.08">
    <path d="M0 0H1200V675H0Z" fill="url(#grid)"/>
    <g stroke="white">
      <path d="M0 48H1200"/><path d="M0 96H1200"/><path d="M0 144H1200"/><path d="M0 192H1200"/><path d="M0 240H1200"/><path d="M0 288H1200"/><path d="M0 336H1200"/><path d="M0 384H1200"/><path d="M0 432H1200"/><path d="M0 480H1200"/><path d="M0 528H1200"/><path d="M0 576H1200"/><path d="M0 624H1200"/>
      <path d="M48 0V675"/><path d="M96 0V675"/><path d="M144 0V675"/><path d="M192 0V675"/><path d="M240 0V675"/><path d="M288 0V675"/><path d="M336 0V675"/><path d="M384 0V675"/><path d="M432 0V675"/><path d="M480 0V675"/><path d="M528 0V675"/><path d="M576 0V675"/><path d="M624 0V675"/><path d="M672 0V675"/><path d="M720 0V675"/><path d="M768 0V675"/><path d="M816 0V675"/><path d="M864 0V675"/><path d="M912 0V675"/><path d="M960 0V675"/><path d="M1008 0V675"/><path d="M1056 0V675"/><path d="M1104 0V675"/><path d="M1152 0V675"/>
    </g>
  </g>
  <circle cx="1020" cy="190" r="130" fill="url(#orb1)" filter="url(#blur)" opacity="0.9"/>
  <circle cx="820" cy="500" r="90" fill="url(#orb2)" filter="url(#blur)" opacity="0.88"/>
  <circle cx="1080" cy="560" r="60" fill="url(#orb3)" filter="url(#blur)" opacity="0.88"/>
  <rect x="64" y="56" width="310" height="48" rx="24" fill="rgba(255,255,255,0.08)" stroke="rgba(255,255,255,0.22)"/>
  <text x="92" y="87" fill="white" font-size="22" font-family="PingFang SC, Microsoft YaHei, sans-serif">论文解读 · AI Agent Benchmark</text>
  <text x="64" y="185" fill="white" font-size="68" font-weight="800" font-family="PingFang SC, Microsoft YaHei, sans-serif">当 AI Agent 真开始维护代码，</text>
  <text x="64" y="270" fill="white" font-size="68" font-weight="800" font-family="PingFang SC, Microsoft YaHei, sans-serif">为什么成绩会从 80% 掉到 38%？</text>
  <text x="64" y="345" fill="rgba(255,255,255,0.88)" font-size="30" font-family="PingFang SC, Microsoft YaHei, sans-serif">EvoClaw：Evaluating AI Agents on Continuous Software Evolution</text>
  <text x="64" y="620" fill="#93C5FD" font-size="28" font-weight="700" font-family="PingFang SC, Microsoft YaHei, sans-serif">内森淼文 · 深度分析</text>
</svg>
