<svg width="512" height="512" viewBox="0 0 512 512" fill="none" xmlns="http://www.w3.org/2000/svg">
<path d="M330.733 339.942C340.811 348.955 343.506 377.877 340.908 387.952C199.441 400.923 144.578 340.13 139.698 344.679C135.795 348.318 150.155 367.124 156.198 373.257C145.136 368.097 118.904 340.645 118.855 329.577C118.819 321.515 100.959 293.914 88.074 283.263C92.5525 286.22 100.478 283.414 103.881 281.642C121.795 293.469 146.349 306.198 157.826 307.077C225.905 358.993 292.373 346.5 330.733 339.942Z" fill="url(#paint0_linear_14_55)"/>
<path d="M181.299 313.733C190.763 322.125 206.189 327.845 214.735 329.647C212.926 299.514 215.276 232.917 222.241 204.647C210.983 211.147 197.548 234.877 187.958 249.266C182.737 257.823 179.7 298.297 181.299 313.733Z" fill="url(#paint1_linear_14_55)"/>
<path d="M173.854 368.838C179.019 372.784 203.125 382.538 211.254 383.618C196.3 395.716 171.385 408.561 160.159 413.118C147.865 409.824 104.75 393.147 103.5 390.982C135.495 389.599 163.089 374.86 173.854 368.838Z" fill="url(#paint2_linear_14_55)"/>
<path d="M284.064 167.054C286.831 153.82 310.53 137.025 320.554 134.238C402.522 250.266 377.304 328.176 383.684 330.127C388.787 331.688 397.893 309.848 400.184 301.548C401.246 313.708 390.587 350.152 381.027 355.729C374.063 359.791 359.089 389.059 356.308 405.543C356.629 400.186 350.237 394.725 347.001 392.664C348.287 371.236 347.033 343.608 342.056 333.229C352.977 248.313 308.924 196.996 284.064 167.054Z" fill="url(#paint3_linear_14_55)"/>
<path d="M336.083 309.573C338.619 297.181 335.859 280.961 333.147 272.659C307.955 289.292 249.106 320.556 221.141 328.659C232.399 335.159 259.667 334.929 276.924 336.039C286.945 336.282 323.515 318.675 336.083 309.573Z" fill="url(#paint4_linear_14_55)"/>
<path d="M387.528 288.468C388.363 282.022 384.756 256.268 381.627 248.688C399.582 255.59 423.164 270.744 432.723 278.188C436.017 290.482 443.132 336.159 441.882 338.324C424.687 311.307 398.126 294.779 387.528 288.468Z" fill="url(#paint5_linear_14_55)"/>
<path d="M158.085 290.31C145.24 294.53 118.845 282.404 111.419 275.116C170.919 146.116 251 129 249.5 122.5C248.3 117.3 224.833 120.333 216.5 122.5C226.5 115.5 263.39 106.509 273 112C280 116 312.833 114.333 328.5 108.5C323.7 110.9 322.167 119.167 322 123C302.8 132.6 279.5 147.5 273 157C194 190 171.585 253.81 158.085 290.31Z" fill="url(#paint6_linear_14_55)"/>
<path d="M255.5 174C243.5 178 230.834 188.5 225 195C252 208.5 308.5 243.833 329.5 264C329.5 251 315.667 227.5 308 212C303.2 203.2 269.667 180.333 255.5 174Z" fill="url(#paint7_linear_14_55)"/>
<path d="M211.5 140C205.5 142.5 185 158.5 180 165C177 146 178.333 118 180 106C189 97 225 68 227.5 68C212.7 96.4 211.667 127.667 211.5 140Z" fill="url(#paint8_linear_14_55)"/>
<defs>
<linearGradient id="paint0_linear_14_55" x1="103.511" y1="309" x2="335.467" y2="366.76" gradientUnits="userSpaceOnUse">
<stop stop-color="#4F9AEB"/>
<stop offset="1" stop-color="#225CB3"/>
</linearGradient>
<linearGradient id="paint1_linear_14_55" x1="99.9999" y1="384.919" x2="304.248" y2="264.687" gradientUnits="userSpaceOnUse">
<stop stop-color="#A0CEFF"/>
<stop offset="0.364583" stop-color="#4D99EB"/>
<stop offset="1" stop-color="#235DB4"/>
</linearGradient>
<linearGradient id="paint2_linear_14_55" x1="99.9999" y1="384.919" x2="304.248" y2="264.687" gradientUnits="userSpaceOnUse">
<stop stop-color="#A0CEFF"/>
<stop offset="0.364583" stop-color="#4D99EB"/>
<stop offset="1" stop-color="#235DB4"/>
</linearGradient>
<linearGradient id="paint3_linear_14_55" x1="370.879" y1="379.305" x2="304.923" y2="149.545" gradientUnits="userSpaceOnUse">
<stop stop-color="#4F9AEB"/>
<stop offset="1" stop-color="#225CB3"/>
</linearGradient>
<linearGradient id="paint4_linear_14_55" x1="438.382" y1="344.386" x2="232.134" y2="227.618" gradientUnits="userSpaceOnUse">
<stop stop-color="#A0CEFF"/>
<stop offset="0.364583" stop-color="#4D99EB"/>
<stop offset="1" stop-color="#235DB4"/>
</linearGradient>
<linearGradient id="paint5_linear_14_55" x1="438.382" y1="344.386" x2="232.134" y2="227.618" gradientUnits="userSpaceOnUse">
<stop stop-color="#A0CEFF"/>
<stop offset="0.364583" stop-color="#4D99EB"/>
<stop offset="1" stop-color="#235DB4"/>
</linearGradient>
<linearGradient id="paint6_linear_14_55" x1="298.492" y1="109" x2="132.492" y2="281" gradientUnits="userSpaceOnUse">
<stop stop-color="#4F9AEB"/>
<stop offset="1" stop-color="#225CB3"/>
</linearGradient>
<linearGradient id="paint7_linear_14_55" x1="234.5" y1="68" x2="236.5" y2="305" gradientUnits="userSpaceOnUse">
<stop stop-color="#A0CEFF"/>
<stop offset="0.364583" stop-color="#4D99EB"/>
<stop offset="1" stop-color="#235DB4"/>
</linearGradient>
<linearGradient id="paint8_linear_14_55" x1="234.5" y1="68" x2="236.5" y2="305" gradientUnits="userSpaceOnUse">
<stop stop-color="#A0CEFF"/>
<stop offset="0.364583" stop-color="#4D99EB"/>
<stop offset="1" stop-color="#235DB4"/>
</linearGradient>
</defs>
</svg>
