<svg width="252" height="252" viewBox="0 0 252 252" fill="none" xmlns="http://www.w3.org/2000/svg">
<path fill-rule="evenodd" clip-rule="evenodd" d="M68.3687 97.8523C68.3687 109.595 71.6587 120.57 77.3672 129.904C86.9136 142.08 100.502 150.935 116.112 154.45C102.545 146.283 93.7584 132.299 93.7584 113.296C93.7584 113.296 93.4553 77.8415 132.16 69.4894L122.729 63.3483L142.259 48.0493C142.259 57.0004 135.749 63.1855 135.749 63.1855L142.747 67.9966C145.006 67.8296 147.37 67.7423 149.842 67.7423C164.823 67.7423 176.114 72.369 184.438 78.3112L196.457 69.858C194.779 69.3419 192.806 68.7689 190.772 68.1782C185.109 66.5335 178.971 64.751 177.414 63.6733C175.144 62.1011 176.601 59.4417 178.391 59.4417C178.862 59.4417 179.591 59.4904 180.507 59.5921C186.386 60.5333 195.317 63.3445 200.851 65.7895L206.222 62.0462C206.222 62.0462 203.292 50.3278 200.851 50.3278C199.94 50.3278 199.375 50.3741 198.924 50.4111C197.682 50.513 197.292 50.5449 192.876 49.3513C189.594 48.4642 187.541 47.507 185.235 46.3058C173.509 39.6748 150.234 31.4483 150.234 31.4483L115.73 29.8207C115.73 29.8207 131.702 33.382 137.634 36.8137C135.097 36.4951 132.513 36.331 129.89 36.331C95.9127 36.331 68.3687 63.875 68.3687 97.8523Z" fill="url(#paint0_linear_301_2575)"/>
<path fill-rule="evenodd" clip-rule="evenodd" d="M204.45 175.124C210.406 171.474 220.936 159.747 220.936 159.747L202.836 188.9C202.836 188.9 183.797 205.475 172.31 212.188C171.636 212.274 170.96 212.349 170.282 212.415C168.485 213.613 166.843 214.866 164.811 216.924C161.613 220.165 161.453 220.519 160.941 221.648C160.756 222.058 160.523 222.571 160.082 223.362C158.899 225.481 147.087 222.197 147.087 222.197L146.369 215.674C152.119 211.419 160.641 203.272 163.415 198.718C163.715 197.182 162.17 195.241 159.962 196.302C158.264 197.119 153.742 201.565 149.57 205.667L149.57 205.667L149.57 205.667L149.569 205.668L149.569 205.668C148.071 207.141 146.617 208.57 145.356 209.77L143.757 195.734C153.465 191.579 163.609 183.991 171.205 170.343C172.451 168.103 173.556 165.92 174.53 163.791L181.232 160.552C181.232 160.552 183.557 169.284 191.463 173.737L187.364 149.161L178.287 153.838C189.353 116.273 157.966 98.9896 157.966 98.9896C141.108 89.5217 124.448 90.2154 110.645 97.9726C121.307 86.1626 135.718 78.7784 151.108 76.5725C162.131 76.2469 173.439 78.8482 183.837 84.7015C213.864 101.606 224.922 139.231 208.535 168.741C207.291 170.981 205.925 173.11 204.45 175.124Z" fill="url(#paint1_linear_301_2575)"/>
<path fill-rule="evenodd" clip-rule="evenodd" d="M48.1459 161.825C48.3921 169.101 52.5288 183.286 52.5288 183.286L37.3081 152.513C37.3081 152.513 34.829 137.299 33.895 124.269C33.6608 124.368 33.4354 124.469 33.2202 124.57C32.9153 121.051 32.8822 118.539 32.8539 116.384C32.811 113.123 32.7788 110.679 31.8318 106.8C30.7511 102.373 30.534 102.05 29.842 101.023C29.5904 100.649 29.2761 100.182 28.8347 99.3915C27.6521 97.2722 36.6261 88.9022 36.6261 88.9022L42.548 91.7031C43.1492 98.772 45.5728 110.16 47.9693 114.996C49.1905 115.755 51.2658 115.305 51.5054 113.053C51.7064 111.164 50.3255 104.944 49.0514 99.2042L49.0513 99.204C48.5937 97.1424 48.1498 95.143 47.798 93.4286L61.0287 99.6665C59.8309 109.808 61.2196 121.84 68.4122 134.763C69.9749 137.571 71.5797 140.142 73.2168 142.496L72.5051 149.378C72.5051 149.378 63.9038 146.8 55.9977 151.254L78.9253 160.606L79.7088 150.57C105.557 178.157 135.856 160.805 135.856 160.805C153.429 150.936 161.525 135.469 161.544 118.818C166.591 134.314 165.692 150.878 159.705 165.596C154.208 175.701 145.86 184.466 135.055 190.548C105.029 207.452 67.4034 197.232 51.0157 167.721C49.9421 165.788 48.9863 163.82 48.1459 161.825Z" fill="url(#paint2_linear_301_2575)"/>
<defs>
<linearGradient id="paint0_linear_301_2575" x1="137.295" y1="29.8207" x2="137.295" y2="154.45" gradientUnits="userSpaceOnUse">
<stop stop-color="#2C9AFF"/>
<stop offset="1" stop-color="#00DADA"/>
</linearGradient>
<linearGradient id="paint1_linear_301_2575" x1="209.708" y1="179.865" x2="99.323" y2="118.26" gradientUnits="userSpaceOnUse">
<stop stop-color="#2C9AFF"/>
<stop offset="1" stop-color="#00DADA"/>
</linearGradient>
<linearGradient id="paint2_linear_301_2575" x1="42.629" y1="165.547" x2="153.188" y2="103.846" gradientUnits="userSpaceOnUse">
<stop stop-color="#2C9AFF"/>
<stop offset="1" stop-color="#00DADA"/>
</linearGradient>
</defs>
</svg>
